<svg width="25" height="25" viewBox="0 0 25 25" fill="none" xmlns="http://www.w3.org/2000/svg">
<path d="M0 12.5C0 5.59644 5.59644 0 12.5 0V0C19.4036 0 25 5.59644 25 12.5V12.5C25 19.4036 19.4036 25 12.5 25V25C5.59644 25 0 19.4036 0 12.5V12.5Z" fill="#F3D617"/>
<path opacity="0.4" fill-rule="evenodd" clip-rule="evenodd" d="M9.3445 18.0754C9.3445 17.5611 9.75218 17.1448 10.2558 17.1448C10.7534 17.1448 11.1611 17.5611 11.1611 18.0754C11.1611 18.5836 10.7534 19 10.2558 19C9.75218 19 9.3445 18.5836 9.3445 18.0754ZM16.0892 18.0754C16.0892 17.5611 16.4969 17.1448 17.0005 17.1448C17.4981 17.1448 17.9058 17.5611 17.9058 18.0754C17.9058 18.5836 17.4981 19 17.0005 19C16.4969 19 16.0892 18.5836 16.0892 18.0754Z" fill="#293133"/>
<path fill-rule="evenodd" clip-rule="evenodd" d="M17.9059 9.35687C18.2717 9.35687 18.5115 9.48545 18.7513 9.7671C18.9911 10.0488 19.0331 10.4529 18.9791 10.8196L18.4096 14.8362C18.3016 15.6083 17.6541 16.1771 16.8927 16.1771H10.3518C9.55445 16.1771 8.89497 15.5525 8.82902 14.7449L8.27745 8.07047L7.37216 7.91128C7.13234 7.86842 6.96447 7.62963 7.00644 7.38472C7.04841 7.13368 7.28223 6.96836 7.52803 7.0051L8.95792 7.22552C9.16176 7.26287 9.31164 7.4337 9.32963 7.64187L9.44354 9.01338C9.46153 9.20993 9.61741 9.35687 9.80926 9.35687H17.9059ZM14.2728 12.5401H15.9335C16.1853 12.5401 16.3831 12.3319 16.3831 12.0809C16.3831 11.8238 16.1853 11.6217 15.9335 11.6217H14.2728C14.021 11.6217 13.8231 11.8238 13.8231 12.0809C13.8231 12.3319 14.021 12.5401 14.2728 12.5401Z" fill="#293133"/>
<path d="M12.5 23C6.70101 23 2 18.299 2 12.5H-2C-2 20.5081 4.49187 27 12.5 27V23ZM23 12.5C23 18.299 18.299 23 12.5 23V27C20.5081 27 27 20.5081 27 12.5H23ZM12.5 2C18.299 2 23 6.70101 23 12.5H27C27 4.49187 20.5081 -2 12.5 -2V2ZM12.5 -2C4.49187 -2 -2 4.49187 -2 12.5H2C2 6.70101 6.70101 2 12.5 2V-2Z" fill="black" fill-opacity="0.75"/>
</svg>
