<svg version="1.1" viewBox="0.0 0.0 960.0 540.0" fill="none" stroke="none" stroke-linecap="square" stroke-miterlimit="10" xmlns:xlink="http://www.w3.org/1999/xlink" xmlns="http://www.w3.org/2000/svg"><clipPath id="p.0"><path d="m0 0l960.0 0l0 540.0l-960.0 0l0 -540.0z" clip-rule="nonzero"/></clipPath><g clip-path="url(#p.0)"><path fill="#000000" fill-opacity="0.0" d="m0 0l960.0 0l0 540.0l-960.0 0z" fill-rule="evenodd"/><path fill="#f3d617" d="m199.52666 267.02026c0.8311615 2.2164307 1.6161652 4.450226 2.3549805 6.7013245c0.7388153 2.251068 1.4314575 4.4155884 2.0779266 6.4935303c-2.7705688 0.41558838 -5.2871704 0.70996094 -7.5498047 0.8831177c-2.262619 0.17315674 -4.7792206 0.32901 -7.5497894 0.4675293c-0.46176147 0.069244385 -0.9466095 0.103881836 -1.4545441 0.103881836c-0.5079346 0 -1.038971 0.03463745 -1.5930786 0.10391235c0.46176147 -0.62338257 0.96969604 -1.2467651 1.5238037 -1.8701477c0.5541229 -0.62338257 1.1082306 -1.2467651 1.6623535 -1.8701477c1.2005768 -1.5930786 2.6551208 -3.290039 4.363632 -5.090912c1.7085266 -1.8008728 3.4862976 -3.4285889 5.3333435 -4.883148l0.83117676 -1.0389404zm-100.294525 -16.519562c1.0158768 0.6926422 2.4935074 1.2294464 4.432907 1.6103973c1.9393997 0.38095093 4.1096725 1.0562744 6.5108337 2.0259857c1.5699844 0.06925964 2.9321823 0.31169128 4.086586 0.7272644c1.1544037 0.41558838 2.23954 0.8484955 3.2554169 1.298706c1.0158691 0.45022583 2.0779266 0.90045166 3.1861496 1.3506775c1.1082306 0.4501953 2.4011612 0.7445679 3.8787918 0.8831177c0.6464691 1.0389404 1.5007248 1.9566956 2.5627747 2.7532349c1.0620499 0.7965393 2.1702805 1.5584717 3.3246841 2.285736c1.1544037 0.7272644 2.2626343 1.4545593 3.3246765 2.1818237c1.0620575 0.7272644 1.9624786 1.6103821 2.7013092 2.649353c-1.0158844 1.7316284 -2.3088074 3.2207947 -3.8787994 4.46756c-1.5699921 1.2467651 -3.3246765 2.3549805 -5.264076 3.3246765c-1.9393997 0.96972656 -4.0634995 1.8355103 -6.372307 2.597412c-2.3087997 0.7619324 -4.617607 1.4891968 -6.9264145 2.1818237c-0.46176147 0.346344 -0.9927826 0.675354 -1.5930786 0.98703c-0.6002884 0.31167603 -1.0851364 0.7445984 -1.4545441 1.298706c-1.3852844 0.0692749 -2.6089478 0.24243164 -3.6710052 0.5194702c-1.0620499 0.2770691 -2.077919 0.58877563 -3.0476227 0.9350891c-0.96969604 0.34631348 -1.9163055 0.65802 -2.8398285 0.9350586c-0.92352295 0.2770691 -1.9855728 0.45022583 -3.1861496 0.51950073c0.8311691 -3.393982 1.4776306 -6.5455017 1.9393921 -9.45459c0.46176147 -2.9091187 0.66955566 -5.7489624 0.62338257 -8.519531c-0.046180725 -2.7705688 -0.3463211 -5.5411377 -0.9004364 -8.311707c-0.5541153 -2.7705688 -1.3852844 -5.7143097 -2.4935074 -8.831207c0.36940765 -0.27705383 0.96969604 -0.41558838 1.8008652 -0.41558838zm321.5243 15.792267c1.8470459 2.1471863 3.5093994 4.450226 4.98703 6.9091187c1.4776306 2.4588928 3.2323303 4.7619324 5.2640686 6.9091187c0 0.6926575 0.046173096 1.1948242 0.13851929 1.5065002c0.09237671 0.31170654 0.36941528 0.7445984 0.83117676 1.298706c-0.09234619 0.96969604 -0.43865967 1.696991 -1.0389404 2.1818237c-0.6003113 0.48486328 -1.085144 1.1082458 -1.4545593 1.8701477c-3.047638 1.1774902 -5.956726 2.337677 -8.727295 3.4805298c-2.7705688 1.1428528 -6.0952454 2.060608 -9.97403 2.7532654c-1.8470459 0 -3.855713 0.15582275 -6.026001 0.4675293c-2.1702576 0.31167603 -4.3867188 0.5368042 -6.649353 0.6753235c-0.9050598 0.055419922 -1.7990112 0.083099365 -2.6819153 0.083099365c-1.3243103 0 -2.6237183 -0.062316895 -3.8981628 -0.1869812c-2.124115 -0.20779419 -3.971161 -0.7965698 -5.5411377 -1.7662659c0.09234619 -1.662323 0.5079346 -3.1168823 1.2467346 -4.3636475c0.73883057 -1.2467651 1.6161804 -2.4242554 2.6320496 -3.5324707c1.0158691 -1.1082458 2.05484 -2.1991577 3.1168823 -3.2727356c1.0620422 -1.0736084 1.9624939 -2.2684326 2.7013245 -3.5844421c0.36938477 -0.110809326 0.62057495 -0.16622925 0.75357056 -0.16622925c0.03326416 0 0.05911255 0.0034484863 0.07757568 0.010375977c0.018493652 0.0069274902 0.04248047 0.010406494 0.072052 0.010406494c0.11819458 0 0.32507324 -0.055419922 0.62060547 -0.16622925c2.1240845 -2.008667 4.525238 -3.7749329 7.2034607 -5.2987366c2.6782227 -1.5238037 5.3564453 -3.0822754 8.034637 -4.675354c0.46176147 0.2770691 0.99279785 0.50216675 1.5930786 0.675354c0.6003113 0.17315674 1.1774902 0.27703857 1.7316284 0.31167603c0.069244385 0.004333496 0.13778687 0.006500244 0.20562744 0.006500244c0.47473145 0 0.91412354 -0.1060791 1.3181763 -0.31817627c0.46176147 -0.24243164 0.78497314 -0.64071655 0.96969604 -1.1948242c0.3324585 0.24935913 0.6483154 0.37402344 0.9475403 0.37402344c0.19946289 0 0.39157104 -0.055389404 0.5762634 -0.16622925c0.46176147 -0.2770691 0.78500366 -0.55410767 0.96969604 -0.83117676zm100.98718 -22.233856c-0.5541382 0.83117676 -1.0158691 1.7489319 -1.385315 2.7532654c-0.36938477 1.0043335 -0.73883057 2.008667 -1.1082153 3.0130005c-0.36938477 1.0043335 -0.78497314 1.9567108 -1.2467651 2.8571472c-0.46173096 0.9004364 -1.1082153 1.6623535 -1.9393921 2.2857208c-0.73883057 3.3939667 -1.4314575 6.718643 -2.077942 9.974075c-0.64642334 3.2554321 -1.5930786 6.3030396 -2.8398132 9.142883c-1.2467346 2.8398438 -2.862915 5.4026184 -4.84848 7.6883545c-1.9855652 2.2857056 -4.640686 4.1558533 -7.965393 5.6104126c-0.55410767 -1.8008728 -0.87731934 -3.5498047 -0.96969604 -5.2467957c-0.09234619 -1.6969604 -0.11541748 -3.3246765 -0.069244385 -4.8831177c0.046173096 -1.5584412 0.11541748 -3.0995789 0.20779419 -4.623413c0.09234619 -1.5238037 0 -3.0476074 -0.2770691 -4.5714417l0 0c0.110809326 0.027709961 0.21057129 0.04156494 0.29922485 0.04156494c0.1329956 0 0.24102783 -0.031158447 0.3241577 -0.09350586c0.13851929 -0.103881836 0.2539673 -0.20779419 0.34631348 -0.31167603c0.09234619 -0.10391235 0.20779419 -0.20779419 0.34631348 -0.31170654c0.1385498 -0.103881836 0.346344 -0.15585327 0.62338257 -0.15585327c-0.27703857 -0.69262695 -0.3232422 -1.2640686 -0.13851929 -1.7142639c0.18469238 -0.45022583 0.41558838 -0.8658142 0.69262695 -1.2467651c0.2770691 -0.38095093 0.48486328 -0.8138733 0.62338257 -1.298706c0.13851929 -0.48486328 0.023101807 -1.1082458 -0.34631348 -1.8701477l0 0c0.23086548 0.0692749 0.4213562 0.10391235 0.57144165 0.10391235c0.15005493 0 0.2597351 -0.03463745 0.3289795 -0.10391235c0.09237671 -0.09234619 0.23602295 -0.13851929 0.43099976 -0.13851929c0.097473145 0 0.20779419 0.0115356445 0.33093262 0.03463745c-0.2770691 -0.41558838 -0.41558838 -0.7445984 -0.41558838 -0.98703c0 -0.24243164 0.023071289 -0.43289185 0.069244385 -0.57144165c0.046173096 -0.13851929 0.046173096 -0.27703857 0 -0.41558838c-0.046173096 -0.13851929 -0.2539673 -0.38095093 -0.62338257 -0.7272644c0.12313843 -0.13851929 0.25656128 -0.20779419 0.40020752 -0.20779419c0.07183838 0 0.14620972 0.017333984 0.22317505 0.051940918c0.046173096 0.02078247 0.091430664 0.031188965 0.1357727 0.031188965c0.17730713 0 0.33984375 -0.16622925 0.48760986 -0.49871826c-0.36941528 -1.662323 -1.1543884 -3.1688385 -2.3549805 -4.5194855c-1.200592 -1.3506622 -2.6551208 -2.5454712 -4.3636475 -3.5844421c-1.7084961 -1.0389557 -3.6017456 -1.9567108 -5.679657 -2.7532501c-2.0779114 -0.7965393 -4.1789246 -1.5065002 -6.3030396 -2.1298828c-4.802307 7.9654083 -9.881683 16.034698 -15.238129 24.207886c-5.356415 8.173187 -10.297272 15.861542 -14.82251 23.065033c0.46176147 0.48486328 0.78497314 1.0909119 0.96969604 1.8181763c0.18469238 0.7272949 0.13851929 1.4718933 -0.1385498 2.2337952c0.6464844 0.96969604 1.31604 2.1125488 2.008667 3.4285889c0.6926575 1.3160095 1.4776306 2.6147156 2.3549805 3.8961182c0.87734985 1.2813721 1.893219 2.4415588 3.047638 3.4805298c1.1543884 1.038971 2.6089478 1.7662354 4.3636475 2.1818237c0.73880005 -0.0692749 1.3621826 -0.22512817 1.8701172 -0.4675293c0.3232422 -0.15429688 0.7493286 -0.2314148 1.2782288 -0.2314148c0.3022461 0 0.63809204 0.025177002 1.0075073 0.07556152c-0.09237671 -0.41558838 -0.230896 -0.65802 -0.41558838 -0.7272644c-0.1847229 -0.0692749 -0.1385498 -0.24243164 0.13851929 -0.51950073c0.18469238 0.008666992 0.36218262 0.013000488 0.5324707 0.013000488c1.191925 0 2.030304 -0.21212769 2.5151367 -0.63638306c0.5541382 -0.48483276 0.94662476 -1.0735779 1.1775208 -1.7662354c0.23086548 -0.69262695 0.43865967 -1.4199219 0.62335205 -2.1818237c0.1847229 -0.76190186 0.6464844 -1.350647 1.3852844 -1.7662354c-0.36938477 -0.6926575 -0.46176147 -1.298706 -0.27703857 -1.8182068c0.18469238 -0.5194702 0.46176147 -1.0043335 0.83114624 -1.4545288c0.36941528 -0.45022583 0.7619324 -0.8831177 1.1775208 -1.298706c0.41555786 -0.41558838 0.66952515 -0.90045166 0.76190186 -1.4545593c0.64645386 0 1.1313171 -0.2597351 1.4545288 -0.77923584c0.3232422 -0.5194702 0.6464844 -1.0909119 0.96969604 -1.7142944c0.3232422 -0.62338257 0.66955566 -1.2294312 1.038971 -1.8181763c0.36941528 -0.5887451 0.96969604 -0.9523926 1.8008728 -1.0909119c1.8470459 3.740265 4.2250977 6.9610596 7.1342163 9.662384c2.9090881 2.701294 6.2568665 5.090912 10.043304 7.1688538c1.9891052 0.5328064 3.6913452 0.79919434 5.1066895 0.79919434c0.42459106 0 0.8233948 -0.023986816 1.1963501 -0.07192993c1.6161499 -0.20779419 3.0014343 -0.62338257 4.1558533 -1.2467651c1.1543884 -0.62335205 2.2395325 -1.3160095 3.2554016 -2.0779114c1.0158691 -0.76190186 2.170288 -1.350647 3.4631958 -1.7662354c-0.18469238 -0.346344 -0.2539673 -0.62338257 -0.20776367 -0.83117676c0.046142578 -0.20779419 0.13848877 -0.36364746 0.27703857 -0.4675293c0.1385498 -0.10391235 0.2539673 -0.22512817 0.34631348 -0.36364746c0.09234619 -0.13851929 0.09234619 -0.34631348 0 -0.62338257l0 0c0.5541382 0.0692749 0.8773804 0.17315674 0.96972656 0.31167603c0.030761719 0.046203613 0.07696533 0.0692749 0.13848877 0.0692749c0.123168945 0 0.30786133 -0.09234619 0.5541382 -0.27703857c0.92352295 -1.2467651 1.8008423 -2.4935303 2.632019 -3.7402954c0.83117676 -1.2467651 1.9855957 -2.320343 3.4632568 -3.2207947c0.46173096 -1.4545288 1.1082153 -3.0822449 1.9393921 -4.8831177c0.8311157 -1.8008728 1.6161499 -3.4978638 2.3549805 -5.0909424c-0.09234619 -1.8701477 0 -3.5844116 0.27703857 -5.1428833c0.27703857 -1.5584412 0.62335205 -3.0649414 1.0389404 -4.5195007c0.41558838 -1.4545288 0.83117676 -2.9263916 1.2467651 -4.4155884c0.41558838 -1.4891968 0.76190186 -3.1342163 1.0389404 -4.935089c0.83117676 -0.41558838 1.4776611 -0.9177551 1.9394531 -1.5065002c0.46173096 -0.5887451 0.8311157 -1.2294312 1.1082153 -1.9220886c0.27703857 -0.69262695 0.53100586 -1.3852844 0.76190186 -2.0779114c0.230896 -0.6926575 0.5772095 -1.31604 1.0389404 -1.8701477c-0.27703857 -1.2467651 -0.87731934 -2.4242554 -1.8008423 -3.532486c-0.92352295 -1.1082306 -1.9393921 -2.2510834 -3.0476685 -3.4285736c-1.3852539 -0.13853455 -2.5396729 -0.46754456 -3.4631958 -0.98703c-0.92352295 -0.5194702 -1.8008423 -1.0735931 -2.632019 -1.6623383c-0.83117676 -0.5887451 -1.7316284 -1.142868 -2.701294 -1.6623383c-0.96972656 -0.5194855 -2.1472168 -0.8484955 -3.5324707 -0.98703zm-437.88812 -13.194855c-0.7388153 0.9697113 -1.2467499 2.0433044 -1.5238113 3.2207947c-0.27705383 1.1774902 -0.7849884 2.389618 -1.5238113 3.636383c0.5541153 1.5930786 1.1313171 2.9956818 1.7316055 4.2078094c0.6002884 1.2121277 0.9004364 2.4415588 0.9004364 3.688324l-2.2164536 0c-0.73882294 0 -1.0158768 0.31169128 -0.8311691 0.93507385c0.18470001 0.27705383 0.18470001 0.6060486 0 0.9870148c-0.18470764 0.38095093 -0.32323456 0.9523773 -0.41558838 1.7142944c1.2929306 3.5324707 2.2164536 7.3766327 2.7705688 11.5325165c0.5541153 4.1558533 0.46176147 8.207825 -0.27706146 12.155884c-0.55410767 0.20779419 -1.108223 0.62338257 -1.6623383 1.2467651c-0.27705383 2.2164612 -0.8311691 4.3636475 -1.6623383 6.4415894c-0.8311691 2.0779114 -1.7546921 4.2250977 -2.7705688 6.441559c0.09235382 1.1082458 -0.16161346 1.9740295 -0.76190186 2.597412c-0.6002884 0.62338257 -1.085144 1.3852844 -1.4545517 2.285736c0.27706146 2.008667 0.53102875 3.948059 0.7619095 5.818207c0.23088074 1.8701477 0.6926422 3.5844116 1.3852844 5.1428833c0.6926422 1.5584412 1.7546921 2.9090881 3.1861496 4.051941c1.4314575 1.1428833 3.4862976 1.9567261 6.1645126 2.4415894c6.187599 -2.1472168 12.536812 -4.1731873 19.047646 -6.077942c6.5108337 -1.9047852 12.767693 -4.0000305 18.770592 -6.285736c6.002899 -2.285736 11.544022 -4.9177856 16.623398 -7.8961487c5.079376 -2.978363 9.281403 -6.6493835 12.606079 -11.013031c0 -0.62338257 0 -1.1082153 0 -1.4545593c0 -0.34631348 0.046173096 -0.6579895 0.13853455 -0.9350586c0.09234619 -0.2770691 0.18469238 -0.55410767 0.27705383 -0.83117676c0.09234619 -0.2770691 0.23088074 -0.62338257 0.41558838 -1.038971c-0.36941528 -4.4329224 -1.7085266 -8.277069 -4.017334 -11.532501c-2.308792 -3.2554321 -5.194809 -6.147217 -8.65802 -8.675369c-3.4631958 -2.5281372 -7.295822 -4.8484955 -11.4978485 -6.9610596c-4.2020264 -2.112564 -8.288612 -4.242447 -12.259758 -6.389633c-2.5858612 -0.48484802 -5.217903 -1.1255493 -7.896118 -1.9220886c-2.6782074 -0.7965393 -5.402603 -1.6277161 -8.173172 -2.493515c-2.7705612 -0.86579895 -5.587303 -1.7489319 -8.450226 -2.6493683c-2.862915 -0.9004364 -5.772011 -1.6969757 -8.727287 -2.389618zm116.91792 13.71434l-1.3852844 1.4545593c-2.0317535 2.2857208 -4.0173187 4.2424316 -5.956711 5.8701477c-1.9394073 1.6277161 -4.2020264 2.8917847 -6.787903 3.792221l-2.0779114 -0.20779419c-0.46176147 0 -0.87734985 0.051956177 -1.2467651 0.15585327c-0.36940002 0.103897095 -0.6926422 0.19047546 -0.96969604 0.2597351l-2.216446 0.7272644c-1.200592 1.1775208 -2.1933746 2.3203735 -2.978363 3.4285889c-0.78500366 1.1082458 -1.5469055 2.2510986 -2.2857208 3.4285889c-0.6464691 0.96969604 -1.292923 1.9220886 -1.9393921 2.8571472c-0.6464691 0.9350891 -1.4776459 1.9913635 -2.493515 3.1688538c-0.18470764 0.34631348 -0.27705383 0.65802 -0.27705383 0.9350586c0 0.2770691 0.046173096 0.51950073 0.13851929 0.7272949c-0.7388153 1.1082153 -1.4545441 2.2164612 -2.1471863 3.3246765c-0.6926422 1.1082458 -1.408371 2.2164612 -2.1471863 3.324707c-2.216446 3.3939514 -4.3636475 6.718628 -6.441574 9.97406c-2.0779114 3.2554016 -4.0404053 6.649353 -5.887451 10.181854l-0.13851929 1.7662354l-1.523819 0.9350586l1.8008728 1.2467651c0.18470764 0.13851929 0.30014038 0.34631348 0.34631348 0.62338257c0.046188354 0.2770691 0.1616211 0.62338257 0.34632874 1.038971c0.09234619 0.34631348 0.18470764 0.7272644 0.27705383 1.1428528c0.09234619 0.41558838 0.55410767 1.038971 1.3852844 1.8701477c0.7388153 0.34631348 1.3852844 0.70996094 1.9393921 1.0909119c0.5541229 0.38095093 1.3391113 0.8831177 2.3549805 1.5065002l1.3852844 0.103881836c0.5541229 0 1.038971 -0.03463745 1.4545441 -0.103881836c0.41558838 -0.0692749 1.1313171 -0.17315674 2.1472015 -0.31170654l1.6623383 -0.20779419l0.41558838 -1.1428528c0.18469238 -0.0692749 0.43865967 -0.15585327 0.76190186 -0.2597351c0.32322693 -0.10391235 0.5771942 -0.22509766 0.76190186 -0.36364746c0.55410767 -0.20779419 1.1082306 -0.43289185 1.6623383 -0.6753235c0.5541229 -0.24243164 1.0620575 -0.57144165 1.523819 -0.9869995l0.55410767 -1.1428833c-0.09234619 -0.83117676 0.023086548 -1.679657 0.34632874 -2.5454712c0.32322693 -0.8657837 0.71572876 -1.7489014 1.1774902 -2.649353c0.27705383 -0.55410767 0.55410767 -1.1428528 0.8311615 -1.7662354c0.27705383 -0.62338257 0.5079346 -1.2467651 0.6926422 -1.8701477c0.18470764 -0.13851929 0.36941528 -0.2597351 0.5541229 -0.36361694c0.18469238 -0.10391235 0.36940002 -0.22512817 0.55410767 -0.36364746l0.6926422 -1.7662354c0 -0.1385498 0.046173096 -0.32901 0.13853455 -0.57144165c0.09234619 -0.24243164 0.23086548 -0.3982544 0.41557312 -0.4675293l1.3852844 -0.20779419l0.5541229 -1.038971c0.27705383 -0.90042114 0.6926422 -1.7662354 1.2467499 -2.597412c0.09234619 0.62338257 0.36941528 1.2467651 0.8311615 1.8701477c-0.27705383 0.90042114 -0.16160583 1.6450195 0.34632874 2.2337646c0.5079346 0.5887451 0.9927826 1.0562744 1.4545441 1.4026184c0.18470764 0.13851929 0.36941528 0.2597351 0.5541229 0.36361694c0.18469238 0.10391235 0.36940002 0.5368042 0.55410767 1.298706l1.3852844 0.20779419c0.7388153 0.0692749 1.4314575 0.12121582 2.0779266 0.15585327c0.6464691 0.03463745 1.3391113 0.051940918 2.0779266 0.051940918c2.0317383 0 3.9018707 -0.12121582 5.6103973 -0.36361694c1.7085114 -0.24243164 3.3939362 -0.5368042 5.0562744 -0.8831177c1.2929382 -0.2770691 2.5627747 -0.51950073 3.8095398 -0.7272949c0.534317 -0.08905029 1.123764 -0.13357544 1.7683563 -0.13357544c0.85943604 0 1.8168945 0.0791626 2.872345 0.2374878c0.18469238 1.8008728 -0.115448 3.0822449 -0.9004364 3.8441467c-0.78500366 0.7619324 -2.331894 1.385315 -4.6407013 1.8701477l-3.740265 0.7272644l2.3549805 1.97406c0.18470764 0.20779419 0.41558838 0.41558838 0.6926422 0.62335205c0.27705383 0.20779419 0.55410767 0.41558838 0.8311615 0.62338257c0.83117676 0.5541382 1.3852844 0.98703 1.6623535 1.298706c0.27705383 0.31170654 0.32322693 0.7445984 0.13851929 1.298706l-0.55410767 1.3506775l1.6623383 0.5194702c0.18470764 0.0692749 0.39250183 0.15585327 0.62338257 0.2597351c0.23088074 0.10391235 0.48484802 0.22512817 0.76190186 0.36364746c0.46176147 0.20779419 0.9004364 0.43289185 1.3160095 0.6753235c0.41558838 0.24243164 1.2236786 0.4675293 2.4242554 0.6753235c1.9393921 -0.069244385 3.786438 -0.41558838 5.5411377 -1.038971c1.7546844 -0.62338257 3.347763 -1.4025879 4.7792206 -2.3376465c1.4314575 -0.9350891 2.6782227 -2.008667 3.740265 -3.2207947c1.0620575 -1.2121277 1.8701324 -2.406952 2.42424 -3.5844421l0.2770691 -0.41558838c0.18469238 -1.3160095 0.18469238 -2.597412 0 -3.8441772c-0.18470764 -1.2467346 -0.41558838 -2.4588623 -0.6926422 -3.636383c-0.18470764 -0.41555786 -0.30015564 -0.8138428 -0.34632874 -1.1947937c-0.046173096 -0.38095093 -0.11543274 -0.77923584 -0.20779419 -1.1948242c2.1240997 -0.76190186 4.0404205 -1.7142944 5.748932 -2.8571472c1.7085114 -1.1428528 3.0245361 -2.337677 3.948059 -3.5844116l1.1082306 -1.5584717l-2.0779266 -0.62335205c-0.36941528 -0.1385498 -0.7388153 -0.346344 -1.1082306 -0.62338257c-0.46176147 -0.346344 -0.96969604 -0.6753235 -1.523819 -0.98703c-0.55410767 -0.31167603 -1.4314575 -0.50216675 -2.6320343 -0.57144165c-0.8311615 -0.34631348 -1.292923 -0.69262695 -1.3852844 -1.0389404l-0.55410767 -1.038971l-1.523819 0.103881836c-0.64645386 0.0692749 -1.2236633 0.1385498 -1.7315979 0.20779419c-0.5079346 0.0692749 -0.9927826 0.17315674 -1.4545441 0.31170654c-0.18470764 -0.0692749 -0.6464691 -0.10391235 -1.3852844 -0.10391235c-0.7388153 -1.3852844 -1.3391113 -2.8571472 -1.8008728 -4.4155884c-0.46176147 -1.5584412 -0.92352295 -3.1688538 -1.3852844 -4.8312073c-0.27705383 -1.1774902 -0.5771942 -2.3376465 -0.9004364 -3.4805298c-0.32322693 -1.1428528 -0.71572876 -2.3030396 -1.1774902 -3.4805298c-0.09234619 -1.4545593 -0.2539673 -2.7705688 -0.48484802 -3.948059c-0.23088074 -1.1774902 -0.48484802 -2.3549957 -0.76190186 -3.532486c-0.18470764 -0.55410767 -0.3232422 -1.1082306 -0.41558838 -1.6623383c-0.09234619 -0.5541229 -0.41558838 -1.3852844 -0.96969604 -2.493515c-0.92352295 -0.6926422 -2.1240997 -1.2121277 -3.6017456 -1.5584564c-1.4776306 -0.34631348 -3.0476227 -0.65800476 -4.709961 -0.9350586c-0.92352295 -0.20779419 -1.8008575 -0.39826965 -2.6320343 -0.57144165c-0.83117676 -0.17315674 -1.4776306 -0.3636322 -1.9393921 -0.5714264l-1.8008728 -0.83117676zm220.12155 -1.8701324c-1.200592 0.55410767 -2.1010132 1.0735931 -2.7013245 1.5584412c-0.60028076 0.48486328 -1.2698364 1.2121277 -2.008667 2.181839c-1.0158691 0.13851929 -1.777771 0.20777893 -2.2857056 0.20777893c-0.5079346 0 -1.1774902 0.03463745 -2.008667 0.103897095c-1.1082153 1.038971 -2.05484 1.9220886 -2.8398132 2.6493683c-0.78500366 0.72727966 -2.008667 1.3679657 -3.6710205 1.9220886l0 1.1428528c-0.73880005 0.13853455 -1.3852844 0.36364746 -1.9393921 0.67533875c-0.55410767 0.31167603 -1.085144 0.64068604 -1.5930786 0.9870148c-0.5079346 0.34631348 -1.038971 0.65800476 -1.5930786 0.9350586c-0.55410767 0.2770691 -1.2467346 0.48486328 -2.0779114 0.62338257c-0.73883057 0.96969604 -1.7315979 1.7142944 -2.978363 2.2337646c-1.2467651 0.51950073 -2.1933594 1.298706 -2.8398438 2.337677c-0.46176147 0.0692749 -0.85424805 0.24243164 -1.1774902 0.51950073c-0.32321167 0.27703857 -0.62335205 0.57141113 -0.90042114 0.8831177c-0.2770691 0.31167603 -0.5772095 0.55410767 -0.90042114 0.7272644c-0.17959595 0.096191406 -0.3948059 0.14431763 -0.6456299 0.14431763c-0.20065308 0 -0.4241333 -0.030792236 -0.67041016 -0.09237671c-2.4934998 2.2164612 -5.079376 4.4848633 -7.7575684 6.805237c-2.6782227 2.320343 -5.056305 4.8485107 -7.1342163 7.584442c-2.077942 2.7359314 -3.6710205 5.7142944 -4.779236 8.935089c-1.1082153 3.2207947 -1.2929382 6.805237 -0.55410767 10.753296c1.0158691 1.8701477 2.3318787 3.6536865 3.948059 5.3506775c1.6161499 1.6969604 3.509369 3.1515198 5.679657 4.3636475c2.170288 1.2121277 4.663788 2.0952454 7.48053 2.649353c1.7333679 0.34100342 3.5629272 0.5115051 5.488678 0.5115051c1.2035828 0 2.4447327 -0.066589355 3.7234497 -0.19979858c2.4413147 0.38546753 4.670349 0.57818604 6.6870728 0.57818604c0.8823242 0 1.7240295 -0.036865234 2.525055 -0.11065674c2.6320496 -0.24243164 5.3333435 -0.7445984 8.103912 -1.5065002c0.3166504 0.019805908 0.64837646 0.029693604 0.9951477 0.029693604c0.8669739 0 1.828186 -0.06185913 2.883667 -0.18554688c1.4776306 -0.17315674 2.9552612 -0.45022583 4.432892 -0.83117676c1.4776306 -0.38095093 2.9090881 -0.7965393 4.2943726 -1.2467346c1.3852844 -0.45022583 2.5858765 -0.8831177 3.6017456 -1.298706c1.2929382 -0.20779419 2.5627747 -0.41558838 3.8095398 -0.62338257c1.2467346 -0.20779419 2.3780518 -0.5541382 3.393921 -1.038971c1.5700073 -0.96969604 3.278534 -1.8008728 5.1255493 -2.4935303c1.8470459 -0.69262695 3.4170532 -1.662323 4.7099915 -2.9090881c1.0158691 -0.41558838 1.893219 -1.0562744 2.632019 -1.9220886c0.73883057 -0.8658142 1.3391113 -1.8355103 1.8008728 -2.9090881c0.46176147 -1.0736084 0.78500366 -2.1818542 0.96969604 -3.324707c0.1847229 -1.1428528 0.1847229 -2.1991272 0 -3.1688538c-0.18469238 -0.76190186 -0.46176147 -1.5238037 -0.83117676 -2.2857056c-0.36938477 -0.76190186 -0.76190186 -1.5065002 -1.1774902 -2.2337646c-0.41558838 -0.7272949 -0.76190186 -1.4718933 -1.0389404 -2.2337952c-0.2770691 -0.76190186 -0.36941528 -1.5584412 -0.2770691 -2.389618c-2.2164612 -2.701294 -4.2020264 -5.5584717 -5.956726 -8.571472c-1.7546997 -3.01297 -3.740265 -5.8701477 -5.956726 -8.571442c0.36941528 -0.2770691 0.5079651 -0.7272949 0.41558838 -1.350647c-0.09234619 -0.346344 -0.36938477 -0.5368042 -0.83114624 -0.57144165c-0.46176147 -0.03463745 -0.6464844 -0.29437256 -0.5541382 -0.77923584c0.92352295 -0.34631348 1.5007324 -0.8831177 1.7316284 -1.6103821c0.23086548 -0.72727966 0.57717896 -1.4372406 1.0389404 -2.1298828c-0.36938477 -0.9004364 -0.73880005 -1.5065002 -1.1082153 -1.8181915c-0.36941528 -0.31169128 -0.6926575 -0.9523773 -0.96969604 -1.9220886c-0.12313843 -0.023086548 -0.23345947 -0.034622192 -0.33093262 -0.034622192c-0.1949768 0 -0.33862305 0.046173096 -0.43096924 0.13851929c-0.09234619 0.09236145 -0.23602295 0.13853455 -0.43096924 0.13853455c-0.09750366 0 -0.2078247 -0.011550903 -0.33093262 -0.03463745c-0.1847229 -0.6233673 -0.5310364 -1.1082306 -1.038971 -1.4545441c-0.5079346 -0.34632874 -1.038971 -0.6753235 -1.5930786 -0.9870148c-0.55410767 -0.31169128 -1.0620422 -0.65802 -1.5238037 -1.038971c-0.46176147 -0.38095093 -0.73883057 -0.9177551 -0.83117676 -1.6103973c-1.0158691 -0.76190186 -2.1933594 -1.2121277 -3.5324707 -1.350647c-1.3391113 -0.13853455 -2.5627747 -0.41558838 -3.67099 -0.83117676zm-158.61496 1.350647c-0.36941528 0.0692749 -0.83117676 0.173172 -1.3852844 0.31169128c-0.36941528 0.13853455 -0.92352295 0.3809662 -1.6623535 0.72727966c-1.1082153 3.532486 -2.3549805 6.8225403 -3.740265 9.870163c-1.3852692 3.0476227 -2.862915 6.129898 -4.432907 9.246811c-0.92352295 1.8008728 -1.8239441 3.619049 -2.701294 5.4545593c-0.87734985 1.8355103 -1.9624939 4.069275 -3.2554169 6.7013245c-0.46176147 0.62338257 -0.87734985 1.3160095 -1.2467499 2.0779114c-0.36941528 0.7619324 -0.36941528 1.4545593 0 2.077942c-0.73883057 0.76190186 -1.3160248 1.6623535 -1.7316132 2.7013245c-0.41558838 1.0389404 -0.80807495 2.1125488 -1.1774902 3.2207642c-0.09234619 0.346344 -0.1616211 0.65802 -0.20779419 0.9350891c-0.046173096 0.27703857 -0.16160583 0.55410767 -0.34631348 0.83117676c-0.46176147 1.2467346 -0.7619171 2.5627747 -0.9004364 3.948059c-0.13853455 1.3852844 -0.09236145 2.7532654 0.13851929 4.1039124c0.23088074 1.350647 0.66955566 2.666687 1.3160248 3.948059c0.6464691 1.2814026 1.523819 2.406952 2.6320343 3.376648c0.09236145 0.55410767 0.2539673 0.9869995 0.48484802 1.298706c0.23088074 0.31167603 0.48486328 0.6060486 0.7619171 0.8831177c0.36940002 0.2770691 0.7849884 0.7965393 1.2467499 1.5584412c2.6782227 1.7315979 6.326126 2.597412 10.943726 2.597412c3.047638 0 6.095276 -0.31167603 9.142883 -0.9350586c3.047638 -0.62338257 5.86438 -1.2467651 8.450226 -1.8701477l3.1861572 -0.62338257c1.200592 0 2.3780823 -0.03463745 3.5324707 -0.103881836c1.154419 -0.0692749 2.2857056 -0.17315674 3.3939514 -0.31170654c1.1082153 -0.069244385 2.2164612 -0.13851929 3.3246765 -0.20779419c1.1082153 -0.069244385 2.170288 -0.103881836 3.1861572 -0.103881836c2.6782227 0 5.2640686 0.31167603 7.7575684 0.9350586c1.8470459 -0.34631348 3.4170532 -0.5194702 4.709961 -0.5194702l0.90045166 0c0.3232422 0 0.85424805 -0.03463745 1.5930786 -0.10391235c0.46176147 -0.34631348 0.94659424 -0.6579895 1.4545288 -0.9350586c0.5079651 -0.2770691 1.4545593 -0.5194702 2.8398438 -0.7272644l-0.2770691 -1.1428833c0.36941528 -0.27703857 0.5541382 -0.69262695 0.5541382 -1.2467346c0.09234619 -0.20779419 -0.1847229 -0.62338257 -0.83117676 -1.2467651l-0.96969604 -4.46756c-0.92352295 -0.55410767 -1.8701477 -0.9869995 -2.8398438 -1.298706c-0.96969604 -0.31167603 -1.9624939 -0.6060486 -2.978363 -0.8831177c-1.1082153 -0.2770691 -2.1702576 -0.5887451 -3.1861572 -0.9350586c-1.0158691 -0.346344 -2.0779114 -0.90045166 -3.1861267 -1.6623535c-0.46176147 -0.0692749 -1.0158997 -0.103881836 -1.6623535 -0.103881836c-0.46176147 0 -0.80807495 -0.017333984 -1.038971 -0.051971436c-0.23086548 -0.03463745 -0.76190186 -0.22509766 -1.5930786 -0.57141113c-1.1082153 0.13851929 -2.3088074 0.20779419 -3.601715 0.20779419l-3.8788147 0c-3.2323303 0.069244385 -6.487732 0.20779419 -9.766235 0.41558838c-3.2785034 0.20776367 -6.3030396 0.8657837 -9.073608 1.9740295c-1.1082153 -0.20779419 -2.0779114 -0.31170654 -2.9090881 -0.31170654l-1.1774902 0c-0.41558838 0 -0.85427856 0.0692749 -1.31604 0.20779419c0.1847229 -2.5627747 0.7157593 -4.8485107 1.5930786 -6.8571777c0.87734985 -2.008667 1.8701477 -4.0173035 2.978363 -6.0259705c0.6464844 -1.1082458 1.269867 -2.2164612 1.8701477 -3.324707c0.60028076 -1.1082153 1.038971 -2.5627747 1.3160095 -4.3636475c0.46176147 -0.2770691 0.80807495 -0.6060791 1.038971 -0.98703c0.23086548 -0.38095093 0.43865967 -0.7445679 0.62338257 -1.0909119c0.18469238 -0.34631348 0.34631348 -0.6579895 0.48483276 -0.9350586c0.1385498 -0.2770691 0.3925171 -0.5887451 0.76190186 -0.9350586c0.36941528 -1.5238342 0.83117676 -2.8052063 1.3852844 -3.8441772c0.55410767 -1.038971 1.154419 -2.077942 1.8008728 -3.1169128c0.55410767 -0.96969604 1.085144 -1.9393921 1.5930786 -2.9090881c0.5079346 -0.96969604 0.99279785 -2.1471863 1.4545593 -3.532486c0.27703857 0 0.69262695 -0.31169128 1.2467346 -0.9350586c0.2770691 -1.523819 0.046173096 -2.7532654 -0.69262695 -3.6883392c-0.73883057 -0.9350586 -1.6161804 -1.8528137 -2.6320496 -2.7532501c-0.18469238 -0.13853455 -0.36941528 -0.29437256 -0.55410767 -0.4675293c-0.18469238 -0.173172 -0.64645386 -0.4329071 -1.3852844 -0.77923584c-1.4776306 0 -3.3246765 -0.29437256 -5.5411377 -0.8831177c-2.2164612 -0.5887451 -4.1558533 -1.194809 -5.8181763 -1.8181915zm116.22528 0c-2.9552917 0 -6.026001 0.13853455 -9.212158 0.41558838c-3.1861267 0.2770691 -6.3492126 0.5887451 -9.489166 0.93507385c-2.124115 0.27705383 -4.225128 0.50216675 -6.3030396 0.6753235c-2.077942 0.17315674 -4.132782 0.32901 -6.1645203 0.46754456c-0.46176147 -0.34632874 -1.038971 -0.70996094 -1.7315979 -1.0909271c-0.5860901 -0.32234192 -1.5193176 -0.48350525 -2.7996826 -0.48350525c-0.23278809 0 -0.47705078 0.0053253174 -0.7327881 0.015975952l-1.3852844 0.5194855c-0.36941528 0.55410767 -0.73883057 1.1428528 -1.1082458 1.7662354c-2.0317383 0.13853455 -3.9942322 0.27705383 -5.887451 0.41558838c-1.893219 0.13853455 -3.7633362 0.27705383 -5.610382 0.41558838c-3.2323303 0.20779419 -6.3723145 0.39826965 -9.419922 0.5714264c-3.047638 0.173172 -6.0490723 0.25975037 -9.004364 0.25975037l-3.8787842 0l-1.8008728 -0.103897095l-0.41558838 1.5584412c-0.18469238 0.20779419 -0.41558838 0.45022583 -0.69262695 0.72727966c-0.2770691 0.27705383 -0.46176147 0.6926422 -0.55410767 1.2467499c0 1.1082306 0.16159058 2.0606232 0.48483276 2.8571625c0.3232422 0.7965393 0.66955566 1.5411377 1.038971 2.2337646c0.18469238 0.48486328 0.36941528 0.9177551 0.55410767 1.298706c0.18469238 0.38095093 0.3232422 0.77923584 0.41558838 1.1948242l1.2467651 1.2467651c0.36938477 0.069244385 1.1082153 0.6579895 2.2164307 1.7662354c0.83117676 0.34631348 1.6161804 0.57141113 2.3549805 0.6753235c0.73883057 0.103881836 1.4314575 0.15585327 2.077942 0.15585327c0.18469238 0 0.41558838 -0.017333984 0.69262695 -0.051971436c0.2770691 -0.034606934 0.5079346 -0.051940918 0.6926575 -0.051940918l4.5714417 0c0.55410767 -0.20779419 1.2929077 -0.31167603 2.2164307 -0.31167603c0.1847229 0 0.3925171 0.017303467 0.62338257 0.051940918c0.230896 0.03463745 0.48486328 0.051940918 0.76190186 0.051940918l1.3852844 0c1.200592 0 2.3088074 -0.17315674 3.3246765 -0.5194702c0.2770691 0.069244385 0.73883057 0.103881836 1.3852844 0.103881836c0.46176147 0 0.92352295 -0.017303467 1.3852844 -0.051940918c0.46176147 -0.03463745 0.96969604 -0.08657837 1.5238342 -0.15585327c0.46176147 -0.069244385 0.92352295 -0.12121582 1.3852539 -0.15582275c0.46176147 -0.03463745 0.96972656 -0.051971436 1.5238342 -0.051971436c-0.1847229 0.346344 -0.3925171 0.7445984 -0.62338257 1.1948242c-0.230896 0.45022583 -0.48486328 0.9177551 -0.76190186 1.4025879c-0.46176147 0.7619324 -0.90045166 1.5065002 -1.31604 2.2337952c-0.41555786 0.7272644 -0.94659424 1.6450195 -1.5930481 2.7532349l-1.2467651 1.038971c-0.55410767 1.5238342 -1.200592 2.995697 -1.9393921 4.415619c-0.73883057 1.4199219 -1.4776306 2.8225098 -2.2164612 4.207794c-1.2929382 2.5627747 -2.5396729 5.2294617 -3.740265 8.0000305c-1.200592 2.7705688 -1.7085266 6.1645203 -1.5238037 10.181854c0.36941528 0.41558838 0.66955566 0.90045166 0.90042114 1.4545593c0.230896 0.55410767 0.4386902 1.1428528 0.62338257 1.7662354c0.18469238 0.76190186 0.43865967 1.5238342 0.76190186 2.285736c0.3232422 0.76190186 0.80807495 1.4545593 1.4545593 2.0779114c0 0.0692749 0 0.48486328 0 1.2467651l1.2467346 0.51950073c0.73883057 0.27703857 1.7085266 0.62335205 2.9091187 1.0389404c0.36938477 0.41558838 0.78497314 0.6926575 1.2467346 0.83117676c0.46176147 0.1385498 1.0620728 0.31170654 1.8008728 0.51950073c0.09234619 0.20779419 0.36941528 0.48483276 0.83117676 0.83117676l1.662323 0c3.324707 0 5.6796875 -0.65802 7.064972 -1.97406c1.2929077 -1.1774902 1.7084961 -2.7705688 1.2467346 -4.779236l-1.2467346 -1.038971c-0.73883057 -0.27703857 -1.2929382 -0.5194702 -1.6623535 -0.7272644c-0.2770691 -0.0692749 -0.69262695 -0.24243164 -1.2467651 -0.5194702c-0.09234619 -0.346344 -0.2539673 -0.62338257 -0.48483276 -0.83117676c-0.230896 -0.20779419 -0.48486328 -0.45022583 -0.76190186 -0.7272949c-0.09234619 -0.48483276 0 -1.1428528 0.27703857 -1.9740295c0.09237671 -0.34631348 0.1847229 -0.70996094 0.2770691 -1.0909119c0.09234619 -0.38095093 0.09234619 -0.7445984 0 -1.0909119c0.46176147 -0.20779419 0.69262695 -0.6579895 0.69262695 -1.350647c0 -0.13851929 0.046173096 -0.36364746 0.1385498 -0.6753235c0.09234619 -0.31170654 0.23086548 -0.64068604 0.41558838 -0.98703c0.55410767 -0.76190186 0.87731934 -1.5238037 0.96969604 -2.2857056c0.36938477 -0.20779419 0.60028076 -0.43292236 0.69262695 -0.6753235c0.09234619 -0.24243164 0.41558838 -0.57144165 0.96969604 -0.98703l0.55410767 -1.2467651c0.2770691 -0.83117676 0.6926575 -1.8181763 1.2467651 -2.961029c0.55410767 -1.1428833 1.3852844 -2.2337952 2.4934998 -3.272766c0.36941528 -1.1774902 0.85427856 -2.2337646 1.4545593 -3.1688232c0.60028076 -0.9350891 1.3621826 -1.9567261 2.2857056 -3.0649414c0.5541382 -1.385315 1.1313171 -2.684021 1.7316284 -3.8961487c0.60028076 -1.2120972 1.2698364 -2.4069214 2.0086365 -3.5844116c0.73883057 -1.1082458 1.431488 -2.2510986 2.077942 -3.4285889c0.64645386 -1.1774902 1.2929382 -2.5281372 1.9393921 -4.0519714c1.3852844 -0.069244385 2.93219 -0.17315674 4.640686 -0.31167603c1.7085266 -0.13851929 3.4862976 -0.31170654 5.3333435 -0.51950073c2.5858765 -0.27703857 5.217926 -0.5367737 7.896118 -0.7792053c2.6782227 -0.24243164 5.1717224 -0.36364746 7.48053 -0.36364746c0.5541382 0 1.085144 0.017333984 1.5930786 0.051940918c0.5079346 0.03463745 1.1774902 0.051971436 2.008667 0.051971436c0.46176147 -0.0692749 0.87734985 -0.15585327 1.2467651 -0.25976562c0.36941528 -0.103881836 0.73880005 -0.22509766 1.1082153 -0.36361694c0.46176147 -0.1385498 0.92352295 -0.2597351 1.3852844 -0.36364746c0.46176147 -0.103881836 0.96969604 -0.15585327 1.5238037 -0.15585327l1.3852844 0.10391235l1.2467651 -1.2467651c0.36941528 -0.13853455 0.92352295 -0.62338257 1.6623535 -1.4545441c0.27703857 -2.008667 -0.1385498 -3.532486 -1.2467651 -4.571457c-1.1082458 -1.0389557 -2.2164612 -1.9393921 -3.3246765 -2.7013092c-0.55410767 -0.34631348 -1.085144 -0.6926422 -1.5930786 -1.0389557c-0.5079346 -0.34632874 -0.90045166 -0.72727966 -1.1774902 -1.142868l-1.3852844 -0.72727966c-1.0158691 -0.13851929 -2.124115 -0.24241638 -3.3246765 -0.31169128c-1.200592 -0.06925964 -2.4473572 -0.103897095 -3.740265 -0.103897095z" fill-rule="evenodd"/><path fill="#f3d617" d="m563.8562 229.30582c-0.27703857 0.41558838 -0.96972656 0.64068604 -2.077942 0.6753235c-0.10070801 0.0031433105 -0.1987915 0.0047302246 -0.2942505 0.0047302246c-0.9540405 0 -1.6409302 -0.15742493 -2.06073 -0.47225952c-0.73883057 0.96969604 -1.31604 1.9913483 -1.7315674 3.0649414c-0.41558838 1.0735931 -0.80810547 2.1645203 -1.1774902 3.2727356c-0.3694458 1.1082306 -0.80810547 2.1298828 -1.31604 3.0649567c-0.5079346 0.9350586 -1.1774902 1.7142944 -2.008667 2.3376617c-0.83117676 3.047638 -1.777771 6.2164764 -2.8398438 9.506531c-1.0620117 3.2900696 -2.0548096 6.355011 -2.9783325 9.194855c0.27703857 1.1774902 0.2539673 2.4761963 -0.0692749 3.8961182c-0.3232422 1.4199219 -0.53100586 2.8398438 -0.6234131 4.2597656c-0.09234619 1.4198914 0.1616211 2.7705688 0.7619629 4.051941c0.60028076 1.2814026 1.9624634 2.3723145 4.086548 3.2727356c-0.09234619 0.96972656 0.0692749 1.7142944 0.48486328 2.2337952c0.41558838 0.5194702 0.99279785 0.9177551 1.7316284 1.1947937c0.73876953 0.2770691 1.5699463 0.48486328 2.4934692 0.62338257c0.92352295 0.1385498 1.8009033 0.31170654 2.63208 0.51950073c2.1240845 -1.1774902 3.8787842 -3.064972 5.264038 -5.662384c1.385315 -2.597412 2.5628052 -5.367981 3.5324707 -8.311707c0.96972656 -2.9437256 1.8009033 -5.7835693 2.4935303 -8.519501c0.69262695 -2.735962 1.4083862 -4.900467 2.1471558 -6.4935455c1.4776611 -3.1861572 2.7244263 -5.6277313 3.7402954 -7.324707c1.0158691 -1.6969757 1.8931885 -2.8571472 2.632019 -3.4805298c0.18469238 -1.1774902 0.0692749 -2.1645203 -0.34631348 -2.9610596c-0.41558838 -0.7965393 -1.0389404 -1.5065002 -1.8701172 -2.1298676c-0.83117676 -0.62338257 -1.7546997 -1.2121277 -2.7705688 -1.7662506c-1.0158691 -0.55410767 -2.077942 -1.1774902 -3.1861572 -1.8701324c-0.21728516 0.032592773 -0.44995117 0.04888916 -0.697937 0.04888916c-0.8059082 0 -1.7738647 -0.1721344 -2.9038086 -0.51641846c-1.4776001 -0.45022583 -2.4935303 -1.0216522 -3.0476074 -1.7142944zm70.52612 14.843872c-0.84368896 0 -1.6799316 0.021759033 -2.508728 0.0652771c-4.6176147 0.24241638 -9.119751 0.7792206 -13.506531 1.6103973c-4.3867188 0.8311615 -8.681091 1.7835541 -12.883118 2.8571472c-4.2020264 1.0736084 -8.150085 2.1991425 -11.844177 3.376648c-1.6623535 0.34631348 -3.4169922 0.76190186 -5.264038 1.2467499c-1.8470459 0.48484802 -3.624878 1.0909119 -5.333374 1.8181915c-1.7084961 0.72727966 -3.2785034 1.6103973 -4.709961 2.6493683c-1.4314575 1.038971 -2.470398 2.2857056 -3.1168823 3.740265c0.18469238 0.90045166 0.18469238 1.6277161 0 2.1818237c-0.18469238 0.55410767 -0.46173096 1.2814026 -0.83117676 2.1818237c0.6464844 0.55410767 0.92352295 1.1255493 0.83117676 1.7142944c-0.09234619 0.5887451 -0.230896 1.298706 -0.41558838 2.1298828c0.461792 0.62338257 0.96972656 1.1948242 1.5238037 1.7142944c0.5541382 0.5194702 1.1082153 1.0562744 1.6623535 1.6103821c0.24627686 -0.046173096 0.46691895 -0.069244385 0.66186523 -0.069244385c0.3899536 0 0.6772461 0.09234619 0.8619385 0.27703857c0.27703857 0.2770691 0.5079346 0.5887451 0.69262695 0.9350891c2.6782227 0.90042114 5.471863 1.5238037 8.380981 1.8701172c2.9091187 0.346344 5.933655 0.5887451 9.073608 0.7272949c1.385315 0.20779419 2.5166016 0.41558838 3.393921 0.62338257c0.29248047 0.069244385 0.59259033 0.103881836 0.90045166 0.103881836c0.6156616 0 1.262146 -0.13851929 1.9393921 -0.41558838c1.5700073 0.62338257 3.4631958 1.1948242 5.6796875 1.7142944c2.2164307 0.51950073 4.2020264 1.1601868 5.956726 1.9220886l1.5238037 0.31167603c0 0.41558838 0.20776367 0.675354 0.62335205 0.77923584c0.41558838 0.10391235 0.5772095 0.3982849 0.48486328 0.8831177c-0.18469238 0.62338257 -0.5079346 1.1428528 -0.96972656 1.5584412c-0.46173096 0.41558838 -0.9696655 0.7965393 -1.5238037 1.1428833c-0.55407715 0.34631348 -1.085144 0.7272644 -1.5930786 1.1428528c-0.5079346 0.41558838 -0.9003906 0.9350586 -1.1774902 1.5584412c-2.2164307 0.76190186 -4.4559937 1.6277161 -6.718628 2.597412c-2.2625732 0.96969604 -4.640686 1.8701477 -7.1341553 2.7013245c-2.4935303 0.83117676 -5.1486816 1.4718628 -7.965393 1.9220886c-1.7437134 0.27868652 -3.5493774 0.4180603 -5.416931 0.4180603c-1.149231 0 -2.3219604 -0.05279541 -3.5181885 -0.1583252c-1.1082153 0.41558838 -1.777771 0.96969604 -2.008606 1.662323c-0.230896 0.6926575 -0.3001709 1.4199219 -0.2078247 2.1818542c0.09234619 0.76190186 0.18469238 1.5065002 0.27703857 2.2337646c0.09234619 0.7272644 -0.046142578 1.367981 -0.41558838 1.9220886c-0.09234619 0.20779419 -0.046142578 0.36361694 0.1385498 0.4675293c0.18469238 0.103881836 0.3925171 0.19049072 0.62335205 0.2597351c0.230896 0.0692749 0.3694458 0.15585327 0.41558838 0.2597351c0.046203613 0.10391235 -0.20776367 0.50216675 -0.76190186 1.1948242c0.3694458 0 0.5310669 0.17315674 0.48486328 0.5194702c-0.046142578 0.346344 0.1616211 0.51950073 0.6234131 0.51950073c0.27703857 0.69262695 0.66955566 1.2640686 1.1774902 1.7142944c0.5079346 0.4501953 1.085083 0.9177551 1.7315674 1.4025879c0.6156616 -0.09234619 1.262146 -0.13851929 1.9393921 -0.13851929c0.33862305 0 0.6849365 0.0115356445 1.0390015 0.03463745c1.0620117 0.069244385 2.1010132 0.12121582 3.1168823 0.15582275c0.20318604 0.0069274902 0.40356445 0.010406494 0.6011963 0.010406494c0.79052734 0 1.5367432 -0.055419922 2.2385864 -0.16622925c0.8773804 -0.1385498 1.6854858 -0.45022583 2.4242554 -0.9350891l0 0c-0.15826416 0.3562317 -0.11303711 0.5343323 0.13574219 0.5343323c0.04144287 0 0.08856201 -0.0049438477 0.14135742 -0.014831543c0.18469238 -0.03463745 0.36938477 -0.051971436 0.55407715 -0.051971436c0.18469238 0 0.3694458 0.017333984 0.5541382 0.051971436c3.324646 -0.76190186 6.741699 -1.696991 10.251099 -2.8052063c3.5093994 -1.1082458 6.810974 -2.4415894 9.904785 -4.0000305c3.09375 -1.5584412 5.864319 -3.3420105 8.311707 -5.3506775c2.4473267 -2.0086365 4.3635864 -4.2943726 5.7489014 -6.857147c0.73883057 -1.3852844 1.0620728 -2.7532654 0.96972656 -4.1039124c-0.09240723 -1.3506775 -0.230896 -2.8917847 -0.41558838 -4.623413c-0.6464844 -1.1082153 -1.5238647 -2.1298828 -2.63208 -3.0649414c-1.1082153 -0.9350586 -1.8008423 -1.8528137 -2.0778809 -2.7532654c-0.38482666 -0.28860474 -0.7375488 -0.43289185 -1.0582275 -0.43289185c-0.06414795 0 -0.12701416 0.0057678223 -0.1885376 0.017303467c-0.04107666 0.0077209473 -0.08154297 0.011566162 -0.12145996 0.011566162c-0.31921387 0 -0.60198975 -0.24627686 -0.8482666 -0.73883057c0 -0.62338257 -0.1616211 -1.3333435 -0.48486328 -2.1298828c-0.32318115 -0.7965393 -0.80804443 -1.5411377 -1.4545288 -2.2337646c-0.6464844 -0.6926575 -1.4776611 -1.2814026 -2.4935303 -1.7662354c-1.0158691 -0.48486328 -2.2164307 -0.7272949 -3.6016846 -0.7272949c-0.2770996 -0.69262695 -0.7850342 -1.1947937 -1.5238647 -1.5065002c-0.73876953 -0.31167603 -1.5930786 -0.57141113 -2.5627441 -0.7792053c-0.96972656 -0.20779419 -1.8932495 -0.41558838 -2.7705688 -0.62338257c-0.87731934 -0.20779419 -1.5930786 -0.55410767 -2.1472168 -1.038971c0.18475342 -0.34631348 0.1385498 -0.57144165 -0.13848877 -0.6753235c-0.2770996 -0.10391235 -0.3694458 -0.32901 -0.2770996 -0.6753235c1.5700073 -0.13851929 3.0245361 -0.29437256 4.3636475 -0.4675293c1.3391113 -0.17315674 2.470459 -0.5368042 3.393982 -1.0909119c0.36938477 0.046173096 0.746521 0.069244385 1.1312866 0.069244385c0.7695923 0 1.5700073 -0.09234619 2.401184 -0.27703857c1.2467651 -0.2770691 2.4934692 -0.5541382 3.7402344 -0.83117676c1.2467651 -0.2770691 2.4473267 -0.41558838 3.6017456 -0.41558838c1.154419 0 2.1472168 0.31167603 2.9783936 0.9350586c2.7705688 -0.13851929 5.9105225 -0.31167603 9.419922 -0.5194702c0.87731934 -0.051940918 1.75177 -0.077941895 2.623352 -0.077941895c2.614746 0 5.203491 0.23379517 7.7662354 0.70132446c1.0158691 -0.346344 1.9625244 -0.7445984 2.8398438 -1.1948242c0.8773804 -0.45022583 1.777771 -0.9523926 2.701294 -1.5065002c0.3694458 -1.1774902 0.2770996 -2.1298676 -0.27703857 -2.8571472c-0.5541382 -0.72727966 -1.2929077 -1.4026031 -2.2164307 -2.0259857c-0.09240723 -0.62338257 -0.3694458 -1.2294464 -0.83117676 -1.8181915c-0.461792 -0.5887451 -0.99279785 -1.194809 -1.5930786 -1.8181763c-0.60028076 -0.62338257 -1.1774902 -1.2467651 -1.7316284 -1.8701477c-0.55407715 -0.62338257 -0.9696655 -1.2813873 -1.2467651 -1.9740295c-4.1676636 -0.909317 -8.179932 -1.3639832 -12.036743 -1.3639832z" fill-rule="evenodd"/><path fill="#f3d617" d="m751.7702 245.58986c0.7601929 0 1.5219727 0.009231567 2.2854004 0.027709961c-2.6782227 2.493515 -5.6796875 4.761917 -9.0043335 6.8052216c-3.324707 2.0432892 -7.203491 3.7229614 -11.636414 5.038971c-1.0158691 -1.5238037 -2.5165405 -2.7359314 -4.502136 -3.6363678c-1.9855957 -0.9004364 -3.9019165 -1.9394073 -5.7489624 -3.1168976c3.786499 -1.7316132 8.450256 -3.047638 13.991394 -3.9480743c4.802307 -0.780365 9.674011 -1.1705627 14.615051 -1.1705627zm-1.6602783 29.754318c1.3076172 0 2.645935 0.065216064 4.0149536 0.19558716c2.9091187 0.2770691 6.118347 1.1428528 9.627686 2.597412c0.18475342 0.96969604 -0.046142578 1.7315979 -0.69262695 2.285736c-0.64642334 0.55410767 -1.4314575 1.0562744 -2.3549805 1.5065002c-0.92352295 0.4501953 -1.8470459 0.9177246 -2.7705688 1.4025879c-0.92352295 0.48486328 -1.5238037 1.1428528 -1.8008423 1.9740295c-2.6782227 0.76190186 -5.264099 1.5757751 -7.7576294 2.4415588c-2.4934692 0.8658142 -5.033142 1.7316284 -7.6190186 2.597412c-2.5858765 0.8658142 -5.264099 1.64505 -8.034668 2.337677c-2.7705688 0.6926575 -5.8181763 1.2121277 -9.142883 1.5584717c1.2006226 -2.7013245 2.4473877 -5.4718933 3.7402954 -8.311737c1.2929077 -2.8398438 2.5396729 -5.437256 3.7402344 -7.7922363c2.401184 -0.2770691 4.802368 -0.6926575 7.203491 -1.2467651c2.401184 -0.55410767 4.9177856 -0.9869995 7.5498047 -1.298706c1.3934326 -0.16500854 2.8256836 -0.24752808 4.296753 -0.24752808zm2.0062866 -45.207184c-0.6464844 0.20777893 -1.4314575 0.32899475 -2.3549805 0.3636322c-0.92352295 0.03463745 -1.8932495 0.051940918 -2.9091187 0.051940918c-1.0158691 0 -1.9855347 0.017318726 -2.9090576 0.051956177c-0.92352295 0.03463745 -1.7085571 0.19047546 -2.3549805 0.4675293c-1.0877075 -0.046173096 -2.1617432 -0.06925964 -3.222107 -0.06925964c-3.7111816 0 -7.2547607 0.28282166 -10.630737 0.8484802c-4.340576 0.72727966 -8.173157 1.471878 -11.497864 2.23378c-0.3078003 -0.18470764 -0.5130615 -0.27705383 -0.6156616 -0.27705383c-0.051330566 0 -0.07696533 0.023086548 -0.07696533 0.06925964c0 0.06925964 -0.0692749 0.103897095 -0.2078247 0.103897095c-0.13848877 0 -0.34631348 -0.03463745 -0.62335205 -0.103897095c-2.6782227 0.41558838 -5.4487915 0.9004364 -8.311707 1.4545593c-2.862915 0.55410767 -5.564209 1.2813873 -8.103882 2.1818237c-2.539734 0.9004364 -4.8254395 1.9913483 -6.8571777 3.2727356c-2.0317383 1.2813873 -3.5093994 2.8571625 -4.4329224 4.727295c1.5700073 2.9091034 3.624817 5.437256 6.164551 7.584442c2.5396729 2.1472015 5.7489014 3.8095398 9.627686 4.98703c0.90301514 -0.24627686 1.9154663 -0.36941528 3.0373535 -0.36941528c0.14025879 0 0.28222656 0.0019226074 0.4258423 0.0057678223c0.076049805 0.0020446777 0.15130615 0.0030822754 0.22576904 0.0030822754c1.1913452 0 2.1781006 -0.2607727 2.9603882 -0.7822876c0.18469238 -1.1775055 0.6234131 -2.112564 1.31604 -2.8052063c0.69262695 -0.6926422 1.8239746 -1.1082306 3.393921 -1.2467651c0.3694458 1.3852844 0.41558838 2.597412 0.1385498 3.636383c-0.27703857 1.038971 -0.66955566 2.0259705 -1.1774902 2.9610596c-0.5079346 0.9350586 -0.99279785 1.8874512 -1.4545288 2.8571472c-0.461792 0.96969604 -0.6464844 2.0779114 -0.5541382 3.3246765c-1.1082153 2.008667 -1.8470459 3.6710205 -2.2164307 4.98703c-0.3694458 1.31604 -0.7157593 2.5454712 -1.0390015 3.688324c-0.3232422 1.1428833 -0.76190186 2.3203735 -1.315979 3.5325012c-0.5541382 1.2121277 -1.5238037 2.6839905 -2.9091187 4.4155884c0 0.34631348 0.09234619 0.5887451 0.27703857 0.7272949c0.18475342 0.13851929 0.3694458 0.31167603 0.5541382 0.5194702c-0.83117676 0.48486328 -1.4314575 1.0909119 -1.8008423 1.8181763c-0.3694458 0.7272949 -0.66955566 1.4718933 -0.90045166 2.2337952c-0.230896 0.76190186 -0.48486328 1.5065002 -0.76190186 2.2337646c-0.2770996 0.7272644 -0.83117676 1.3333435 -1.6623535 1.8181763c0.6464844 0.83117676 1.0158691 1.696991 1.1082153 2.5974426c-0.6464844 0.13851929 -1.1082153 0.38095093 -1.3852539 0.7272644c-0.2770996 0.34631348 -0.48486328 0.7445984 -0.6234131 1.1947937c-0.13848877 0.45022583 -0.23083496 0.9350891 -0.27703857 1.4545593c-0.046203613 0.51950073 -0.11541748 1.0216675 -0.2078247 1.5065002c0.461792 1.1082458 1.1082764 2.0952454 1.9394531 2.9610596c0.8311157 0.8658142 1.0158691 1.5757446 0.55407715 2.1298828c0.83117676 0.13851929 1.4776611 0.57141113 1.9393921 1.298706c0.461792 0.7272644 0.60028076 1.2640686 0.41558838 1.6103821c0.92352295 0.20779419 1.6161499 0.43289185 2.077942 0.6753235c0.46173096 0.24243164 0.87731934 0.51950073 1.2467651 0.83117676c0.36938477 0.31170654 0.73883057 0.62338257 1.1082153 0.9350586c0.36938477 0.31170654 0.92352295 0.6060791 1.6623535 0.8831482c0.47491455 -0.3562317 0.9668579 -0.5343323 1.475708 -0.5343323c0.08483887 0 0.17010498 0.0049438477 0.25585938 0.014831543c0.60028076 0.0692749 1.546936 0.17315674 2.8398438 0.31170654c0.73883057 -0.2770691 1.4545288 -0.7619324 2.1472168 -1.4545593c0.69262695 -0.6926575 1.2698364 -1.350647 1.7315674 -1.9740295c1.0158691 0.55410767 2.2164917 1.1428528 3.6017456 1.7662354c1.385315 0.62338257 2.7244263 1.1082153 4.017334 1.4545593c1.175415 0.31481934 2.179016 0.47225952 3.0109863 0.47225952c0.08319092 0 0.16467285 -0.0015869141 0.2444458 -0.0047302246c0.87731934 -0.03463745 1.3621826 -0.4675293 1.4545288 -1.298706c0.46173096 0.13851929 0.71569824 0.36361694 0.76190186 0.6753235c0.046203613 0.31167603 0.3001709 0.5368042 0.76190186 0.6753235c1.0158691 -0.13851929 2.1472168 -0.2770691 3.393921 -0.41558838c1.2467651 -0.13851929 2.4242554 -0.31167603 3.5325317 -0.5194702c1.1082153 -0.20779419 2.1010132 -0.4675293 2.9783325 -0.77923584c0.87731934 -0.31167603 1.546875 -0.70996094 2.008667 -1.1947937c5.72583 -0.62338257 11.2438965 -1.8182068 16.554138 -3.5844421c5.3102417 -1.7662354 10.41272 -3.7575989 15.307373 -5.97406c1.2929077 -0.83117676 2.1240845 -1.3852844 2.4935303 -1.662323c0.36938477 -0.2770691 0.73876953 -0.5887451 1.1082153 -0.9350891c0.36938477 -0.34631348 0.92352295 -0.90042114 1.6623535 -1.662323c0.73876953 -0.7619324 2.1240845 -2.077942 4.1558228 -3.9480896c0.09234619 -0.34631348 0.09234619 -0.8138428 0 -1.4025879c-0.09234619 -0.5887451 -0.46173096 -1.0216675 -1.1082153 -1.298706c0.55407715 -0.41558838 0.78497314 -0.9350891 0.69262695 -1.5584412c-0.09234619 -0.62338257 -0.36938477 -1.3333435 -0.83117676 -2.1298828c-0.46173096 -0.7965393 -0.94659424 -1.6277161 -1.4545288 -2.4935303c-0.5079346 -0.8657837 -0.90045166 -1.7142944 -1.1774902 -2.5454712c-0.92352295 -0.13851929 -1.5238037 -0.41558838 -1.8009033 -0.83114624c-0.92352295 -1.1775208 -2.0548096 -2.2337952 -3.393921 -3.1688538c-1.3391113 -0.9350586 -2.7474976 -1.8182068 -4.2250977 -2.649353c-1.4776611 -0.83117676 -2.93219 -1.679657 -4.3636475 -2.5454712c-1.4314575 -0.8658142 -2.701294 -1.8182068 -3.8095093 -2.8571472c1.6622925 -1.5930786 3.486267 -3.0822754 5.471863 -4.46756c1.9855347 -1.3852844 3.855713 -2.8571472 5.6103516 -4.4155884c1.7546997 -1.5584564 3.2092896 -3.2727509 4.3636475 -5.1428986c1.154419 -1.8701324 1.6854248 -4.0865936 1.5930786 -6.6493683c-0.18469238 -0.34632874 -0.5079346 -0.5541229 -0.9696655 -0.62338257c-0.461792 -0.06925964 -0.6464844 -0.31169128 -0.5541382 -0.72727966c0 -1.0389557 -0.34631348 -1.9740295 -1.0389404 -2.8052063c-0.69262695 -0.8311615 -1.5700073 -1.5930786 -2.63208 -2.2857208c-1.0620117 -0.6926422 -2.170227 -1.3679657 -3.324646 -2.0259857c-1.154419 -0.65800476 -2.1472168 -1.3679657 -2.9783936 -2.1298676c-0.8311157 0 -1.5930176 -0.20779419 -2.2857056 -0.62338257c-0.69262695 -0.41558838 -1.4314575 -0.8831177 -2.2164307 -1.4026031c-0.78497314 -0.5194855 -1.6392822 -0.9870148 -2.5628052 -1.4026031c-0.92352295 -0.41558838 -1.9855347 -0.62338257 -3.1860962 -0.62338257c-0.461792 0.13853455 -0.5079956 0.36364746 -0.1385498 0.6753235c0.3022461 0.25502014 0.35717773 0.38253784 0.16485596 0.38253784c-0.04272461 0 -0.097717285 -0.00630188 -0.16485596 -0.01889038c-1.2005615 -0.62338257 -2.3549805 -0.9870148 -3.4631958 -1.0909119c-1.1082764 -0.103897095 -1.9393921 -0.39826965 -2.4935303 -0.8831177z" fill-rule="evenodd"/><path fill="#f3d617" d="m815.83923 250.5007c1.0158691 0.6926422 2.4935303 1.2294464 4.4329224 1.6103973c1.9393921 0.38095093 4.10968 1.0562744 6.510803 2.0259857c1.5700073 0.06925964 2.93219 0.31169128 4.086609 0.7272644c1.154419 0.41558838 2.239563 0.8484955 3.2554321 1.298706c1.0158691 0.45022583 2.077942 0.90045166 3.1861572 1.3506775c1.1082153 0.4501953 2.401123 0.7445679 3.8787842 0.8831177c0.6464844 1.0389404 1.5007324 1.9566956 2.5627441 2.7532349c1.0620728 0.7965393 2.170288 1.5584717 3.324707 2.285736c1.154419 0.7272644 2.2626343 1.4545593 3.324707 2.1818237c1.0620117 0.7272644 1.9624634 1.6103821 2.701294 2.649353c-1.0158691 1.7316284 -2.308838 3.2207947 -3.8788452 4.46756c-1.5699463 1.2467651 -3.324646 2.3549805 -5.264038 3.3246765c-1.9393921 0.96972656 -4.0634766 1.8355103 -6.3723145 2.597412c-2.3087769 0.7619324 -4.6176147 1.4891968 -6.9263916 2.1818237c-0.461792 0.346344 -0.99279785 0.675354 -1.5930786 0.98703c-0.60028076 0.31167603 -1.085144 0.7445984 -1.4545898 1.298706c-1.3852539 0.0692749 -2.6089478 0.24243164 -3.6709595 0.5194702c-1.0620728 0.2770691 -2.077942 0.58877563 -3.0476685 0.9350891c-0.9696655 0.34631348 -1.9162598 0.65802 -2.8397827 0.9350586c-0.92352295 0.2770691 -1.9855957 0.45022583 -3.1861572 0.51950073c0.83117676 -3.393982 1.4776001 -6.5455017 1.9393921 -9.45459c0.46173096 -2.9091187 0.66955566 -5.7489624 0.62335205 -8.519531c-0.046142578 -2.7705688 -0.34631348 -5.5411377 -0.90045166 -8.311707c-0.55407715 -2.7705688 -1.3852539 -5.7143097 -2.4934692 -8.831207c0.36938477 -0.27705383 0.9696655 -0.41558838 1.8008423 -0.41558838zm-15.376648 -19.636444c-0.73883057 0.9697113 -1.2467651 2.0433044 -1.5238037 3.2207947c-0.27703857 1.1774902 -0.78497314 2.389618 -1.5238037 3.636383c0.5541382 1.5930786 1.1312866 2.9956818 1.7316284 4.2078094c0.60028076 1.2121277 0.9003906 2.4415588 0.9003906 3.688324l-2.2164307 0c-0.73883057 0 -1.0158691 0.31169128 -0.83117676 0.93507385c0.18469238 0.27705383 0.18469238 0.6060486 0 0.9870148c-0.18469238 0.38095093 -0.3232422 0.9523773 -0.41558838 1.7142944c1.2929688 3.5324707 2.2164307 7.3766327 2.7705688 11.5325165c0.5541382 4.1558533 0.461792 8.207825 -0.27703857 12.155884c-0.5541382 0.20779419 -1.1082153 0.62338257 -1.6623535 1.2467651c-0.27703857 2.2164612 -0.83117676 4.3636475 -1.6623535 6.4415894c-0.83117676 2.0779114 -1.7546997 4.2250977 -2.7705688 6.441559c0.09234619 1.1082458 -0.1616211 1.9740295 -0.76190186 2.597412c-0.60028076 0.62338257 -1.085144 1.3852844 -1.4545288 2.285736c0.27703857 2.008667 0.53100586 3.948059 0.76190186 5.818207c0.230896 1.8701477 0.69262695 3.5844116 1.3852539 5.1428833c0.692688 1.5584412 1.7546997 2.9090881 3.1861572 4.051941c1.4314575 1.1428833 3.4863281 1.9567261 6.164551 2.4415894c6.187561 -2.1472168 12.536804 -4.1731873 19.047607 -6.077942c6.5108643 -1.9047852 12.7677 -4.0000305 18.77063 -6.285736c6.0028687 -2.285736 11.544006 -4.9177856 16.623413 -7.8961487c5.0793457 -2.978363 9.281372 -6.6493835 12.606079 -11.013031c0 -0.62338257 0 -1.1082153 0 -1.4545593c0 -0.34631348 0.046142578 -0.6579895 0.13848877 -0.9350586c0.09234619 -0.2770691 0.18469238 -0.55410767 0.27703857 -0.83117676c0.09240723 -0.2770691 0.230896 -0.62338257 0.41558838 -1.038971c-0.36938477 -4.4329224 -1.7084961 -8.277069 -4.017273 -11.532501c-2.308838 -3.2554321 -5.194824 -6.147217 -8.65802 -8.675369c-3.4632568 -2.5281372 -7.2958374 -4.8484955 -11.497864 -6.9610596c-4.2020264 -2.112564 -8.288635 -4.242447 -12.259766 -6.389633c-2.5858765 -0.48484802 -5.2178955 -1.1255493 -7.896118 -1.9220886c-2.6782227 -0.7965393 -5.402588 -1.6277161 -8.173157 -2.493515c-2.7705688 -0.86579895 -5.5873413 -1.7489319 -8.450256 -2.6493683c-2.862915 -0.9004364 -5.7720337 -1.6969757 -8.727295 -2.389618z" fill-rule="evenodd"/></g></svg>